<svg xmlns="http://www.w3.org/2000/svg" xmlns:xlink="http://www.w3.org/1999/xlink" version="1.1" width="1402px" height="481px" viewBox="-0.5 -0.5 1402 481" style="background-color: rgb(24, 20, 29);">
<defs/>
<g>
<path d="M 50 0 L 210 0 L 230 20 L 210 40 L 50 40 L 30 20 Z" fill="rgb(24, 20, 29)" stroke="rgb(240, 240, 240)" stroke-miterlimit="10" pointer-events="none"/>
<path d="M -60 110 L 100 110 L 120 130 L 100 150 L -60 150 L -80 130 Z" fill="rgb(24, 20, 29)" stroke="rgb(240, 240, 240)" stroke-miterlimit="10" transform="rotate(90,20,130)" pointer-events="none"/>
<path d="M 160 110 L 320 110 L 340 130 L 320 150 L 160 150 L 140 130 Z" fill="rgb(24, 20, 29)" stroke="rgb(240, 240, 240)" stroke-miterlimit="10" transform="rotate(90,240,130)" pointer-events="none"/>
<path d="M 50 220 L 210 220 L 230 240 L 210 260 L 50 260 L 30 240 Z" fill="rgb(24, 20, 29)" stroke="rgb(240, 240, 240)" stroke-miterlimit="10" pointer-events="none"/>
<path d="M -60 330 L 100 330 L 120 350 L 100 370 L -60 370 L -80 350 Z" fill="rgb(24, 20, 29)" stroke="rgb(240, 240, 240)" stroke-miterlimit="10" transform="rotate(90,20,350)" pointer-events="none"/>
<path d="M 160 330 L 320 330 L 340 350 L 320 370 L 160 370 L 140 350 Z" fill="rgb(24, 20, 29)" stroke="rgb(240, 240, 240)" stroke-miterlimit="10" transform="rotate(90,240,350)" pointer-events="none"/>
<path d="M 50 440 L 210 440 L 230 460 L 210 480 L 50 480 L 30 460 Z" fill="rgb(24, 20, 29)" stroke="rgb(240, 240, 240)" stroke-miterlimit="10" pointer-events="none"/>
<path d="M 140 320 L 190 270" fill="none" stroke="rgb(240, 240, 240)" stroke-miterlimit="10" pointer-events="none"/>
<path d="M 160 340 L 210 290" fill="none" stroke="rgb(240, 240, 240)" stroke-miterlimit="10" pointer-events="none"/>
<path d="M 50 410 L 100 360" fill="none" stroke="rgb(240, 240, 240)" stroke-miterlimit="10" pointer-events="none"/>
<path d="M 70 430 L 120 380" fill="none" stroke="rgb(240, 240, 240)" stroke-miterlimit="10" pointer-events="none"/>
<path d="M 100 340 L 50 290" fill="none" stroke="rgb(240, 240, 240)" stroke-miterlimit="10" pointer-events="none"/>
<path d="M 120 320 L 70 270" fill="none" stroke="rgb(240, 240, 240)" stroke-miterlimit="10" pointer-events="none"/>
<path d="M 50 270 L 70 270" fill="none" stroke="rgb(240, 240, 240)" stroke-miterlimit="10" pointer-events="none"/>
<path d="M 190 270 L 210 270" fill="none" stroke="rgb(240, 240, 240)" stroke-miterlimit="10" pointer-events="none"/>
<path d="M 50 430 L 70 430" fill="none" stroke="rgb(240, 240, 240)" stroke-miterlimit="10" pointer-events="none"/>
<path d="M 190 430 L 210 430" fill="none" stroke="rgb(240, 240, 240)" stroke-miterlimit="10" pointer-events="none"/>
<path d="M 190 430 L 140 380" fill="none" stroke="rgb(240, 240, 240)" stroke-miterlimit="10" pointer-events="none"/>
<path d="M 210 410 L 160 360" fill="none" stroke="rgb(240, 240, 240)" stroke-miterlimit="10" pointer-events="none"/>
<path d="M 50 430 L 50 410" fill="none" stroke="rgb(240, 240, 240)" stroke-miterlimit="10" pointer-events="none"/>
<path d="M 210 430 L 210 410" fill="none" stroke="rgb(240, 240, 240)" stroke-miterlimit="10" pointer-events="none"/>
<path d="M 50 290 L 50 270" fill="none" stroke="rgb(240, 240, 240)" stroke-miterlimit="10" pointer-events="none"/>
<path d="M 210 290 L 210 270" fill="none" stroke="rgb(240, 240, 240)" stroke-miterlimit="10" pointer-events="none"/>
<path d="M 140 360 L 160 360" fill="none" stroke="rgb(240, 240, 240)" stroke-miterlimit="10" pointer-events="none"/>
<path d="M 140 360 L 140 380" fill="none" stroke="rgb(240, 240, 240)" stroke-miterlimit="10" pointer-events="none"/>
<path d="M 120 360 L 120 380" fill="none" stroke="rgb(240, 240, 240)" stroke-miterlimit="10" pointer-events="none"/>
<path d="M 140 320 L 140 340" fill="none" stroke="rgb(240, 240, 240)" stroke-miterlimit="10" pointer-events="none"/>
<path d="M 120 320 L 120 340" fill="none" stroke="rgb(240, 240, 240)" stroke-miterlimit="10" pointer-events="none"/>
<path d="M 140 340 L 160 340" fill="none" stroke="rgb(240, 240, 240)" stroke-miterlimit="10" pointer-events="none"/>
<path d="M 100 340 L 120 340" fill="none" stroke="rgb(240, 240, 240)" stroke-miterlimit="10" pointer-events="none"/>
<path d="M 100 360 L 120 360" fill="none" stroke="rgb(240, 240, 240)" stroke-miterlimit="10" pointer-events="none"/>
<path d="M 140 100 L 190 50" fill="none" stroke="rgb(240, 240, 240)" stroke-miterlimit="10" pointer-events="none"/>
<path d="M 160 120 L 210 70" fill="none" stroke="rgb(240, 240, 240)" stroke-miterlimit="10" pointer-events="none"/>
<path d="M 50 190 L 100 140" fill="none" stroke="rgb(240, 240, 240)" stroke-miterlimit="10" pointer-events="none"/>
<path d="M 70 210 L 120 160" fill="none" stroke="rgb(240, 240, 240)" stroke-miterlimit="10" pointer-events="none"/>
<path d="M 100 120 L 50 70" fill="none" stroke="rgb(240, 240, 240)" stroke-miterlimit="10" pointer-events="none"/>
<path d="M 120 100 L 70 50" fill="none" stroke="rgb(240, 240, 240)" stroke-miterlimit="10" pointer-events="none"/>
<path d="M 50 50 L 70 50" fill="none" stroke="rgb(240, 240, 240)" stroke-miterlimit="10" pointer-events="none"/>
<path d="M 190 50 L 210 50" fill="none" stroke="rgb(240, 240, 240)" stroke-miterlimit="10" pointer-events="none"/>
<path d="M 50 210 L 70 210" fill="none" stroke="rgb(240, 240, 240)" stroke-miterlimit="10" pointer-events="none"/>
<path d="M 190 210 L 210 210" fill="none" stroke="rgb(240, 240, 240)" stroke-miterlimit="10" pointer-events="none"/>
<path d="M 190 210 L 140 160" fill="none" stroke="rgb(240, 240, 240)" stroke-miterlimit="10" pointer-events="none"/>
<path d="M 210 190 L 160 140" fill="none" stroke="rgb(240, 240, 240)" stroke-miterlimit="10" pointer-events="none"/>
<path d="M 50 210 L 50 190" fill="none" stroke="rgb(240, 240, 240)" stroke-miterlimit="10" pointer-events="none"/>
<path d="M 210 210 L 210 190" fill="none" stroke="rgb(240, 240, 240)" stroke-miterlimit="10" pointer-events="none"/>
<path d="M 50 70 L 50 50" fill="none" stroke="rgb(240, 240, 240)" stroke-miterlimit="10" pointer-events="none"/>
<path d="M 210 70 L 210 50" fill="none" stroke="rgb(240, 240, 240)" stroke-miterlimit="10" pointer-events="none"/>
<path d="M 140 140 L 160 140" fill="none" stroke="rgb(240, 240, 240)" stroke-miterlimit="10" pointer-events="none"/>
<path d="M 140 140 L 140 160" fill="none" stroke="rgb(240, 240, 240)" stroke-miterlimit="10" pointer-events="none"/>
<path d="M 120 140 L 120 160" fill="none" stroke="rgb(240, 240, 240)" stroke-miterlimit="10" pointer-events="none"/>
<path d="M 140 100 L 140 120" fill="none" stroke="rgb(240, 240, 240)" stroke-miterlimit="10" pointer-events="none"/>
<path d="M 120 100 L 120 120" fill="none" stroke="rgb(240, 240, 240)" stroke-miterlimit="10" pointer-events="none"/>
<path d="M 140 120 L 160 120" fill="none" stroke="rgb(240, 240, 240)" stroke-miterlimit="10" pointer-events="none"/>
<path d="M 100 120 L 120 120" fill="none" stroke="rgb(240, 240, 240)" stroke-miterlimit="10" pointer-events="none"/>
<path d="M 100 140 L 120 140" fill="none" stroke="rgb(240, 240, 240)" stroke-miterlimit="10" pointer-events="none"/>
<ellipse cx="330" cy="440" rx="20" ry="20" fill="rgb(24, 20, 29)" stroke="rgb(240, 240, 240)" pointer-events="none"/>
<path d="M 430 0 L 590 0 L 610 20 L 590 40 L 430 40 L 410 20 Z" fill="rgb(24, 20, 29)" stroke="rgb(240, 240, 240)" stroke-miterlimit="10" pointer-events="none"/>
<path d="M 320 110 L 480 110 L 500 130 L 480 150 L 320 150 L 300 130 Z" fill="rgb(24, 20, 29)" stroke="rgb(240, 240, 240)" stroke-miterlimit="10" transform="rotate(90,400,130)" pointer-events="none"/>
<path d="M 540 110 L 700 110 L 720 130 L 700 150 L 540 150 L 520 130 Z" fill="rgb(24, 20, 29)" stroke="rgb(240, 240, 240)" stroke-miterlimit="10" transform="rotate(90,620,130)" pointer-events="none"/>
<path d="M 430 220 L 590 220 L 610 240 L 590 260 L 430 260 L 410 240 Z" fill="rgb(24, 20, 29)" stroke="rgb(240, 240, 240)" stroke-miterlimit="10" pointer-events="none"/>
<path d="M 320 330 L 480 330 L 500 350 L 480 370 L 320 370 L 300 350 Z" fill="rgb(24, 20, 29)" stroke="rgb(240, 240, 240)" stroke-miterlimit="10" transform="rotate(90,400,350)" pointer-events="none"/>
<path d="M 540 330 L 700 330 L 720 350 L 700 370 L 540 370 L 520 350 Z" fill="rgb(24, 20, 29)" stroke="rgb(240, 240, 240)" stroke-miterlimit="10" transform="rotate(90,620,350)" pointer-events="none"/>
<path d="M 430 440 L 590 440 L 610 460 L 590 480 L 430 480 L 410 460 Z" fill="rgb(24, 20, 29)" stroke="rgb(240, 240, 240)" stroke-miterlimit="10" pointer-events="none"/>
<path d="M 520 320 L 570 270" fill="none" stroke="rgb(240, 240, 240)" stroke-miterlimit="10" pointer-events="none"/>
<path d="M 540 340 L 590 290" fill="none" stroke="rgb(240, 240, 240)" stroke-miterlimit="10" pointer-events="none"/>
<path d="M 430 410 L 480 360" fill="none" stroke="rgb(240, 240, 240)" stroke-miterlimit="10" pointer-events="none"/>
<path d="M 450 430 L 500 380" fill="none" stroke="rgb(240, 240, 240)" stroke-miterlimit="10" pointer-events="none"/>
<path d="M 480 340 L 430 290" fill="none" stroke="rgb(240, 240, 240)" stroke-miterlimit="10" pointer-events="none"/>
<path d="M 500 320 L 450 270" fill="none" stroke="rgb(240, 240, 240)" stroke-miterlimit="10" pointer-events="none"/>
<path d="M 430 270 L 450 270" fill="none" stroke="rgb(240, 240, 240)" stroke-miterlimit="10" pointer-events="none"/>
<path d="M 570 270 L 590 270" fill="none" stroke="rgb(240, 240, 240)" stroke-miterlimit="10" pointer-events="none"/>
<path d="M 430 430 L 450 430" fill="none" stroke="rgb(240, 240, 240)" stroke-miterlimit="10" pointer-events="none"/>
<path d="M 570 430 L 590 430" fill="none" stroke="rgb(240, 240, 240)" stroke-miterlimit="10" pointer-events="none"/>
<path d="M 570 430 L 520 380" fill="none" stroke="rgb(240, 240, 240)" stroke-miterlimit="10" pointer-events="none"/>
<path d="M 590 410 L 540 360" fill="none" stroke="rgb(240, 240, 240)" stroke-miterlimit="10" pointer-events="none"/>
<path d="M 430 430 L 430 410" fill="none" stroke="rgb(240, 240, 240)" stroke-miterlimit="10" pointer-events="none"/>
<path d="M 590 430 L 590 410" fill="none" stroke="rgb(240, 240, 240)" stroke-miterlimit="10" pointer-events="none"/>
<path d="M 430 290 L 430 270" fill="none" stroke="rgb(240, 240, 240)" stroke-miterlimit="10" pointer-events="none"/>
<path d="M 590 290 L 590 270" fill="none" stroke="rgb(240, 240, 240)" stroke-miterlimit="10" pointer-events="none"/>
<path d="M 520 360 L 540 360" fill="none" stroke="rgb(240, 240, 240)" stroke-miterlimit="10" pointer-events="none"/>
<path d="M 520 360 L 520 380" fill="none" stroke="rgb(240, 240, 240)" stroke-miterlimit="10" pointer-events="none"/>
<path d="M 500 360 L 500 380" fill="none" stroke="rgb(240, 240, 240)" stroke-miterlimit="10" pointer-events="none"/>
<path d="M 520 320 L 520 340" fill="none" stroke="rgb(240, 240, 240)" stroke-miterlimit="10" pointer-events="none"/>
<path d="M 500 320 L 500 340" fill="none" stroke="rgb(240, 240, 240)" stroke-miterlimit="10" pointer-events="none"/>
<path d="M 520 340 L 540 340" fill="none" stroke="rgb(240, 240, 240)" stroke-miterlimit="10" pointer-events="none"/>
<path d="M 480 340 L 500 340" fill="none" stroke="rgb(240, 240, 240)" stroke-miterlimit="10" pointer-events="none"/>
<path d="M 480 360 L 500 360" fill="none" stroke="rgb(240, 240, 240)" stroke-miterlimit="10" pointer-events="none"/>
<path d="M 520 100 L 570 50" fill="none" stroke="rgb(240, 240, 240)" stroke-miterlimit="10" pointer-events="none"/>
<path d="M 540 120 L 590 70" fill="none" stroke="rgb(240, 240, 240)" stroke-miterlimit="10" pointer-events="none"/>
<path d="M 430 190 L 480 140" fill="none" stroke="rgb(240, 240, 240)" stroke-miterlimit="10" pointer-events="none"/>
<path d="M 450 210 L 500 160" fill="none" stroke="rgb(240, 240, 240)" stroke-miterlimit="10" pointer-events="none"/>
<path d="M 480 120 L 430 70" fill="none" stroke="rgb(240, 240, 240)" stroke-miterlimit="10" pointer-events="none"/>
<path d="M 500 100 L 450 50" fill="none" stroke="rgb(240, 240, 240)" stroke-miterlimit="10" pointer-events="none"/>
<path d="M 430 50 L 450 50" fill="none" stroke="rgb(240, 240, 240)" stroke-miterlimit="10" pointer-events="none"/>
<path d="M 570 50 L 590 50" fill="none" stroke="rgb(240, 240, 240)" stroke-miterlimit="10" pointer-events="none"/>
<path d="M 430 210 L 450 210" fill="none" stroke="rgb(240, 240, 240)" stroke-miterlimit="10" pointer-events="none"/>
<path d="M 570 210 L 590 210" fill="none" stroke="rgb(240, 240, 240)" stroke-miterlimit="10" pointer-events="none"/>
<path d="M 570 210 L 520 160" fill="none" stroke="rgb(240, 240, 240)" stroke-miterlimit="10" pointer-events="none"/>
<path d="M 590 190 L 540 140" fill="none" stroke="rgb(240, 240, 240)" stroke-miterlimit="10" pointer-events="none"/>
<path d="M 430 210 L 430 190" fill="none" stroke="rgb(240, 240, 240)" stroke-miterlimit="10" pointer-events="none"/>
<path d="M 590 210 L 590 190" fill="none" stroke="rgb(240, 240, 240)" stroke-miterlimit="10" pointer-events="none"/>
<path d="M 430 70 L 430 50" fill="none" stroke="rgb(240, 240, 240)" stroke-miterlimit="10" pointer-events="none"/>
<path d="M 590 70 L 590 50" fill="none" stroke="rgb(240, 240, 240)" stroke-miterlimit="10" pointer-events="none"/>
<path d="M 520 140 L 540 140" fill="none" stroke="rgb(240, 240, 240)" stroke-miterlimit="10" pointer-events="none"/>
<path d="M 520 140 L 520 160" fill="none" stroke="rgb(240, 240, 240)" stroke-miterlimit="10" pointer-events="none"/>
<path d="M 500 140 L 500 160" fill="none" stroke="rgb(240, 240, 240)" stroke-miterlimit="10" pointer-events="none"/>
<path d="M 520 100 L 520 120" fill="none" stroke="rgb(240, 240, 240)" stroke-miterlimit="10" pointer-events="none"/>
<path d="M 500 100 L 500 120" fill="none" stroke="rgb(240, 240, 240)" stroke-miterlimit="10" pointer-events="none"/>
<path d="M 520 120 L 540 120" fill="none" stroke="rgb(240, 240, 240)" stroke-miterlimit="10" pointer-events="none"/>
<path d="M 480 120 L 500 120" fill="none" stroke="rgb(240, 240, 240)" stroke-miterlimit="10" pointer-events="none"/>
<path d="M 480 140 L 500 140" fill="none" stroke="rgb(240, 240, 240)" stroke-miterlimit="10" pointer-events="none"/>
<ellipse cx="710" cy="440" rx="20" ry="20" fill="rgb(24, 20, 29)" stroke="rgb(240, 240, 240)" pointer-events="none"/>
<path d="M 810 0 L 970 0 L 990 20 L 970 40 L 810 40 L 790 20 Z" fill="rgb(24, 20, 29)" stroke="rgb(240, 240, 240)" stroke-miterlimit="10" pointer-events="none"/>
<path d="M 700 110 L 860 110 L 880 130 L 860 150 L 700 150 L 680 130 Z" fill="rgb(24, 20, 29)" stroke="rgb(240, 240, 240)" stroke-miterlimit="10" transform="rotate(90,780,130)" pointer-events="none"/>
<path d="M 920 110 L 1080 110 L 1100 130 L 1080 150 L 920 150 L 900 130 Z" fill="rgb(24, 20, 29)" stroke="rgb(240, 240, 240)" stroke-miterlimit="10" transform="rotate(90,1000,130)" pointer-events="none"/>
<path d="M 810 220 L 970 220 L 990 240 L 970 260 L 810 260 L 790 240 Z" fill="rgb(24, 20, 29)" stroke="rgb(240, 240, 240)" stroke-miterlimit="10" pointer-events="none"/>
<path d="M 700 330 L 860 330 L 880 350 L 860 370 L 700 370 L 680 350 Z" fill="rgb(24, 20, 29)" stroke="rgb(240, 240, 240)" stroke-miterlimit="10" transform="rotate(90,780,350)" pointer-events="none"/>
<path d="M 920 330 L 1080 330 L 1100 350 L 1080 370 L 920 370 L 900 350 Z" fill="rgb(24, 20, 29)" stroke="rgb(240, 240, 240)" stroke-miterlimit="10" transform="rotate(90,1000,350)" pointer-events="none"/>
<path d="M 810 440 L 970 440 L 990 460 L 970 480 L 810 480 L 790 460 Z" fill="rgb(24, 20, 29)" stroke="rgb(240, 240, 240)" stroke-miterlimit="10" pointer-events="none"/>
<path d="M 900 320 L 950 270" fill="none" stroke="rgb(240, 240, 240)" stroke-miterlimit="10" pointer-events="none"/>
<path d="M 920 340 L 970 290" fill="none" stroke="rgb(240, 240, 240)" stroke-miterlimit="10" pointer-events="none"/>
<path d="M 810 410 L 860 360" fill="none" stroke="rgb(240, 240, 240)" stroke-miterlimit="10" pointer-events="none"/>
<path d="M 830 430 L 880 380" fill="none" stroke="rgb(240, 240, 240)" stroke-miterlimit="10" pointer-events="none"/>
<path d="M 860 340 L 810 290" fill="none" stroke="rgb(240, 240, 240)" stroke-miterlimit="10" pointer-events="none"/>
<path d="M 880 320 L 830 270" fill="none" stroke="rgb(240, 240, 240)" stroke-miterlimit="10" pointer-events="none"/>
<path d="M 810 270 L 830 270" fill="none" stroke="rgb(240, 240, 240)" stroke-miterlimit="10" pointer-events="none"/>
<path d="M 950 270 L 970 270" fill="none" stroke="rgb(240, 240, 240)" stroke-miterlimit="10" pointer-events="none"/>
<path d="M 810 430 L 830 430" fill="none" stroke="rgb(240, 240, 240)" stroke-miterlimit="10" pointer-events="none"/>
<path d="M 950 430 L 970 430" fill="none" stroke="rgb(240, 240, 240)" stroke-miterlimit="10" pointer-events="none"/>
<path d="M 950 430 L 900 380" fill="none" stroke="rgb(240, 240, 240)" stroke-miterlimit="10" pointer-events="none"/>
<path d="M 970 410 L 920 360" fill="none" stroke="rgb(240, 240, 240)" stroke-miterlimit="10" pointer-events="none"/>
<path d="M 810 430 L 810 410" fill="none" stroke="rgb(240, 240, 240)" stroke-miterlimit="10" pointer-events="none"/>
<path d="M 970 430 L 970 410" fill="none" stroke="rgb(240, 240, 240)" stroke-miterlimit="10" pointer-events="none"/>
<path d="M 810 290 L 810 270" fill="none" stroke="rgb(240, 240, 240)" stroke-miterlimit="10" pointer-events="none"/>
<path d="M 970 290 L 970 270" fill="none" stroke="rgb(240, 240, 240)" stroke-miterlimit="10" pointer-events="none"/>
<path d="M 900 360 L 920 360" fill="none" stroke="rgb(240, 240, 240)" stroke-miterlimit="10" pointer-events="none"/>
<path d="M 900 360 L 900 380" fill="none" stroke="rgb(240, 240, 240)" stroke-miterlimit="10" pointer-events="none"/>
<path d="M 880 360 L 880 380" fill="none" stroke="rgb(240, 240, 240)" stroke-miterlimit="10" pointer-events="none"/>
<path d="M 900 320 L 900 340" fill="none" stroke="rgb(240, 240, 240)" stroke-miterlimit="10" pointer-events="none"/>
<path d="M 880 320 L 880 340" fill="none" stroke="rgb(240, 240, 240)" stroke-miterlimit="10" pointer-events="none"/>
<path d="M 900 340 L 920 340" fill="none" stroke="rgb(240, 240, 240)" stroke-miterlimit="10" pointer-events="none"/>
<path d="M 860 340 L 880 340" fill="none" stroke="rgb(240, 240, 240)" stroke-miterlimit="10" pointer-events="none"/>
<path d="M 860 360 L 880 360" fill="none" stroke="rgb(240, 240, 240)" stroke-miterlimit="10" pointer-events="none"/>
<path d="M 900 100 L 950 50" fill="none" stroke="rgb(240, 240, 240)" stroke-miterlimit="10" pointer-events="none"/>
<path d="M 920 120 L 970 70" fill="none" stroke="rgb(240, 240, 240)" stroke-miterlimit="10" pointer-events="none"/>
<path d="M 810 190 L 860 140" fill="none" stroke="rgb(240, 240, 240)" stroke-miterlimit="10" pointer-events="none"/>
<path d="M 830 210 L 880 160" fill="none" stroke="rgb(240, 240, 240)" stroke-miterlimit="10" pointer-events="none"/>
<path d="M 860 120 L 810 70" fill="none" stroke="rgb(240, 240, 240)" stroke-miterlimit="10" pointer-events="none"/>
<path d="M 880 100 L 830 50" fill="none" stroke="rgb(240, 240, 240)" stroke-miterlimit="10" pointer-events="none"/>
<path d="M 810 50 L 830 50" fill="none" stroke="rgb(240, 240, 240)" stroke-miterlimit="10" pointer-events="none"/>
<path d="M 950 50 L 970 50" fill="none" stroke="rgb(240, 240, 240)" stroke-miterlimit="10" pointer-events="none"/>
<path d="M 810 210 L 830 210" fill="none" stroke="rgb(240, 240, 240)" stroke-miterlimit="10" pointer-events="none"/>
<path d="M 950 210 L 970 210" fill="none" stroke="rgb(240, 240, 240)" stroke-miterlimit="10" pointer-events="none"/>
<path d="M 950 210 L 900 160" fill="none" stroke="rgb(240, 240, 240)" stroke-miterlimit="10" pointer-events="none"/>
<path d="M 970 190 L 920 140" fill="none" stroke="rgb(240, 240, 240)" stroke-miterlimit="10" pointer-events="none"/>
<path d="M 810 210 L 810 190" fill="none" stroke="rgb(240, 240, 240)" stroke-miterlimit="10" pointer-events="none"/>
<path d="M 970 210 L 970 190" fill="none" stroke="rgb(240, 240, 240)" stroke-miterlimit="10" pointer-events="none"/>
<path d="M 810 70 L 810 50" fill="none" stroke="rgb(240, 240, 240)" stroke-miterlimit="10" pointer-events="none"/>
<path d="M 970 70 L 970 50" fill="none" stroke="rgb(240, 240, 240)" stroke-miterlimit="10" pointer-events="none"/>
<path d="M 900 140 L 920 140" fill="none" stroke="rgb(240, 240, 240)" stroke-miterlimit="10" pointer-events="none"/>
<path d="M 900 140 L 900 160" fill="none" stroke="rgb(240, 240, 240)" stroke-miterlimit="10" pointer-events="none"/>
<path d="M 880 140 L 880 160" fill="none" stroke="rgb(240, 240, 240)" stroke-miterlimit="10" pointer-events="none"/>
<path d="M 900 100 L 900 120" fill="none" stroke="rgb(240, 240, 240)" stroke-miterlimit="10" pointer-events="none"/>
<path d="M 880 100 L 880 120" fill="none" stroke="rgb(240, 240, 240)" stroke-miterlimit="10" pointer-events="none"/>
<path d="M 900 120 L 920 120" fill="none" stroke="rgb(240, 240, 240)" stroke-miterlimit="10" pointer-events="none"/>
<path d="M 860 120 L 880 120" fill="none" stroke="rgb(240, 240, 240)" stroke-miterlimit="10" pointer-events="none"/>
<path d="M 860 140 L 880 140" fill="none" stroke="rgb(240, 240, 240)" stroke-miterlimit="10" pointer-events="none"/>
<ellipse cx="1090" cy="440" rx="20" ry="20" fill="rgb(24, 20, 29)" stroke="rgb(240, 240, 240)" pointer-events="none"/>
<path d="M 1190 0 L 1350 0 L 1370 20 L 1350 40 L 1190 40 L 1170 20 Z" fill="rgb(24, 20, 29)" stroke="rgb(240, 240, 240)" stroke-miterlimit="10" pointer-events="none"/>
<path d="M 1080 110 L 1240 110 L 1260 130 L 1240 150 L 1080 150 L 1060 130 Z" fill="rgb(24, 20, 29)" stroke="rgb(240, 240, 240)" stroke-miterlimit="10" transform="rotate(90,1160,130)" pointer-events="none"/>
<path d="M 1300 110 L 1460 110 L 1480 130 L 1460 150 L 1300 150 L 1280 130 Z" fill="rgb(24, 20, 29)" stroke="rgb(240, 240, 240)" stroke-miterlimit="10" transform="rotate(90,1380,130)" pointer-events="none"/>
<path d="M 1190 220 L 1350 220 L 1370 240 L 1350 260 L 1190 260 L 1170 240 Z" fill="rgb(24, 20, 29)" stroke="rgb(240, 240, 240)" stroke-miterlimit="10" pointer-events="none"/>
<path d="M 1080 330 L 1240 330 L 1260 350 L 1240 370 L 1080 370 L 1060 350 Z" fill="rgb(24, 20, 29)" stroke="rgb(240, 240, 240)" stroke-miterlimit="10" transform="rotate(90,1160,350)" pointer-events="none"/>
<path d="M 1300 330 L 1460 330 L 1480 350 L 1460 370 L 1300 370 L 1280 350 Z" fill="rgb(24, 20, 29)" stroke="rgb(240, 240, 240)" stroke-miterlimit="10" transform="rotate(90,1380,350)" pointer-events="none"/>
<path d="M 1190 440 L 1350 440 L 1370 460 L 1350 480 L 1190 480 L 1170 460 Z" fill="rgb(24, 20, 29)" stroke="rgb(240, 240, 240)" stroke-miterlimit="10" pointer-events="none"/>
<path d="M 1280 320 L 1330 270" fill="none" stroke="rgb(240, 240, 240)" stroke-miterlimit="10" pointer-events="none"/>
<path d="M 1300 340 L 1350 290" fill="none" stroke="rgb(240, 240, 240)" stroke-miterlimit="10" pointer-events="none"/>
<path d="M 1190 410 L 1240 360" fill="none" stroke="rgb(240, 240, 240)" stroke-miterlimit="10" pointer-events="none"/>
<path d="M 1210 430 L 1260 380" fill="none" stroke="rgb(240, 240, 240)" stroke-miterlimit="10" pointer-events="none"/>
<path d="M 1240 340 L 1190 290" fill="none" stroke="rgb(240, 240, 240)" stroke-miterlimit="10" pointer-events="none"/>
<path d="M 1260 320 L 1210 270" fill="none" stroke="rgb(240, 240, 240)" stroke-miterlimit="10" pointer-events="none"/>
<path d="M 1190 270 L 1210 270" fill="none" stroke="rgb(240, 240, 240)" stroke-miterlimit="10" pointer-events="none"/>
<path d="M 1330 270 L 1350 270" fill="none" stroke="rgb(240, 240, 240)" stroke-miterlimit="10" pointer-events="none"/>
<path d="M 1190 430 L 1210 430" fill="none" stroke="rgb(240, 240, 240)" stroke-miterlimit="10" pointer-events="none"/>
<path d="M 1330 430 L 1350 430" fill="none" stroke="rgb(240, 240, 240)" stroke-miterlimit="10" pointer-events="none"/>
<path d="M 1330 430 L 1280 380" fill="none" stroke="rgb(240, 240, 240)" stroke-miterlimit="10" pointer-events="none"/>
<path d="M 1350 410 L 1300 360" fill="none" stroke="rgb(240, 240, 240)" stroke-miterlimit="10" pointer-events="none"/>
<path d="M 1190 430 L 1190 410" fill="none" stroke="rgb(240, 240, 240)" stroke-miterlimit="10" pointer-events="none"/>
<path d="M 1350 430 L 1350 410" fill="none" stroke="rgb(240, 240, 240)" stroke-miterlimit="10" pointer-events="none"/>
<path d="M 1190 290 L 1190 270" fill="none" stroke="rgb(240, 240, 240)" stroke-miterlimit="10" pointer-events="none"/>
<path d="M 1350 290 L 1350 270" fill="none" stroke="rgb(240, 240, 240)" stroke-miterlimit="10" pointer-events="none"/>
<path d="M 1280 360 L 1300 360" fill="none" stroke="rgb(240, 240, 240)" stroke-miterlimit="10" pointer-events="none"/>
<path d="M 1280 360 L 1280 380" fill="none" stroke="rgb(240, 240, 240)" stroke-miterlimit="10" pointer-events="none"/>
<path d="M 1260 360 L 1260 380" fill="none" stroke="rgb(240, 240, 240)" stroke-miterlimit="10" pointer-events="none"/>
<path d="M 1280 320 L 1280 340" fill="none" stroke="rgb(240, 240, 240)" stroke-miterlimit="10" pointer-events="none"/>
<path d="M 1260 320 L 1260 340" fill="none" stroke="rgb(240, 240, 240)" stroke-miterlimit="10" pointer-events="none"/>
<path d="M 1280 340 L 1300 340" fill="none" stroke="rgb(240, 240, 240)" stroke-miterlimit="10" pointer-events="none"/>
<path d="M 1240 340 L 1260 340" fill="none" stroke="rgb(240, 240, 240)" stroke-miterlimit="10" pointer-events="none"/>
<path d="M 1240 360 L 1260 360" fill="none" stroke="rgb(240, 240, 240)" stroke-miterlimit="10" pointer-events="none"/>
<path d="M 1280 100 L 1330 50" fill="none" stroke="rgb(240, 240, 240)" stroke-miterlimit="10" pointer-events="none"/>
<path d="M 1300 120 L 1350 70" fill="none" stroke="rgb(240, 240, 240)" stroke-miterlimit="10" pointer-events="none"/>
<path d="M 1190 190 L 1240 140" fill="none" stroke="rgb(240, 240, 240)" stroke-miterlimit="10" pointer-events="none"/>
<path d="M 1210 210 L 1260 160" fill="none" stroke="rgb(240, 240, 240)" stroke-miterlimit="10" pointer-events="none"/>
<path d="M 1240 120 L 1190 70" fill="none" stroke="rgb(240, 240, 240)" stroke-miterlimit="10" pointer-events="none"/>
<path d="M 1260 100 L 1210 50" fill="none" stroke="rgb(240, 240, 240)" stroke-miterlimit="10" pointer-events="none"/>
<path d="M 1190 50 L 1210 50" fill="none" stroke="rgb(240, 240, 240)" stroke-miterlimit="10" pointer-events="none"/>
<path d="M 1330 50 L 1350 50" fill="none" stroke="rgb(240, 240, 240)" stroke-miterlimit="10" pointer-events="none"/>
<path d="M 1190 210 L 1210 210" fill="none" stroke="rgb(240, 240, 240)" stroke-miterlimit="10" pointer-events="none"/>
<path d="M 1330 210 L 1350 210" fill="none" stroke="rgb(240, 240, 240)" stroke-miterlimit="10" pointer-events="none"/>
<path d="M 1330 210 L 1280 160" fill="none" stroke="rgb(240, 240, 240)" stroke-miterlimit="10" pointer-events="none"/>
<path d="M 1350 190 L 1300 140" fill="none" stroke="rgb(240, 240, 240)" stroke-miterlimit="10" pointer-events="none"/>
<path d="M 1190 210 L 1190 190" fill="none" stroke="rgb(240, 240, 240)" stroke-miterlimit="10" pointer-events="none"/>
<path d="M 1350 210 L 1350 190" fill="none" stroke="rgb(240, 240, 240)" stroke-miterlimit="10" pointer-events="none"/>
<path d="M 1190 70 L 1190 50" fill="none" stroke="rgb(240, 240, 240)" stroke-miterlimit="10" pointer-events="none"/>
<path d="M 1350 70 L 1350 50" fill="none" stroke="rgb(240, 240, 240)" stroke-miterlimit="10" pointer-events="none"/>
<path d="M 1280 140 L 1300 140" fill="none" stroke="rgb(240, 240, 240)" stroke-miterlimit="10" pointer-events="none"/>
<path d="M 1280 140 L 1280 160" fill="none" stroke="rgb(240, 240, 240)" stroke-miterlimit="10" pointer-events="none"/>
<path d="M 1260 140 L 1260 160" fill="none" stroke="rgb(240, 240, 240)" stroke-miterlimit="10" pointer-events="none"/>
<path d="M 1280 100 L 1280 120" fill="none" stroke="rgb(240, 240, 240)" stroke-miterlimit="10" pointer-events="none"/>
<path d="M 1260 100 L 1260 120" fill="none" stroke="rgb(240, 240, 240)" stroke-miterlimit="10" pointer-events="none"/>
<path d="M 1280 120 L 1300 120" fill="none" stroke="rgb(240, 240, 240)" stroke-miterlimit="10" pointer-events="none"/>
<path d="M 1240 120 L 1260 120" fill="none" stroke="rgb(240, 240, 240)" stroke-miterlimit="10" pointer-events="none"/>
<path d="M 1240 140 L 1260 140" fill="none" stroke="rgb(240, 240, 240)" stroke-miterlimit="10" pointer-events="none"/>
<ellipse cx="710" cy="140" rx="20" ry="20" fill="rgb(24, 20, 29)" stroke="rgb(240, 240, 240)" pointer-events="none"/>
</g>
</svg>
