<svg version="1.1" viewBox="0.0 0.0 962.1653543307086 206.90813648293963" fill="none" stroke="none" stroke-linecap="square" stroke-miterlimit="10" xmlns:xlink="http://www.w3.org/1999/xlink" xmlns="http://www.w3.org/2000/svg"><clipPath id="p.0"><path d="m0 0l962.16534 0l0 206.90814l-962.16534 0l0 -206.90814z" clip-rule="nonzero"/></clipPath><g clip-path="url(#p.0)"><path fill="#000000" fill-opacity="0.0" d="m0 0l962.16534 0l0 206.90814l-962.16534 0z" fill-rule="evenodd"/><path fill="#000000" fill-opacity="0.0" d="m0 0l980.7244 0l0 208.47244l-980.7244 0z" fill-rule="evenodd"/><path fill="#000000" d="m9.0 9.0l771.9258 0l0 187.19998l-771.9258 0l0 -187.19998z" fill-rule="nonzero"/><path fill="#00ff00" d="m780.9258 9.0l85.76953 0l0 187.19998l-85.76953 0l0 -187.19998z" fill-rule="nonzero"/><path fill="#000000" d="m866.6953 9.0l85.76953 0l0 187.19998l-85.76953 0l0 -187.19998z" fill-rule="nonzero"/><path fill="#000000" fill-opacity="0.0" d="m9.0 42.902573l771.9258 0l0 182.66016l-771.9258 0l0 -182.66016z" fill-rule="nonzero"/><path fill="#00ff00" d="m24.921875 82.96312l8.21875 -8.453125l51.1875 42.734375l-51.1875 42.734375l-8.21875 -8.375l41.515625 -34.203125l-41.515625 -34.4375zm240.63281 75.796875l-14.78125 0l-6.9375 -21.703125l-41.4375 0l-7.0 21.703125l-14.09375 0l33.0625 -99.5625l18.578125 0l32.609375 99.5625zm-25.59375 -33.828125l-16.84375 -53.234375l-16.828125 53.234375l33.671875 0zm102.28516 6.859375q0 7.09375 -2.890625 12.421875q-2.890625 5.328125 -8.078125 8.875q-5.171875 3.53125 -12.453125 5.296875q-7.265625 1.75 -16.03125 1.75q-3.953125 0 -7.875 -0.3125q-3.921875 -0.296875 -7.546875 -0.765625q-3.625 -0.453125 -6.828125 -1.0625q-3.1875 -0.609375 -5.78125 -1.296875l0 -13.09375q5.71875 2.125 12.828125 3.34375q7.125 1.21875 16.203125 1.21875q6.546875 0 11.15625 -1.015625q4.609375 -1.03125 7.53125 -3.046875q2.9375 -2.03125 4.265625 -4.921875q1.34375 -2.890625 1.34375 -6.625q0 -4.03125 -2.25 -6.890625q-2.25 -2.859375 -5.90625 -5.109375q-3.65625 -2.25 -8.34375 -4.109375q-4.6875 -1.875 -9.5625 -3.84375q-4.875 -1.984375 -9.5625 -4.296875q-4.671875 -2.328125 -8.328125 -5.484375q-3.65625 -3.171875 -5.90625 -7.4375q-2.25 -4.265625 -2.25 -10.125q0 -5.109375 2.125 -10.0625q2.140625 -4.953125 6.625 -8.796875q4.5 -3.84375 11.546875 -6.203125q7.046875 -2.359375 16.796875 -2.359375q2.515625 0 5.453125 0.234375q2.9375 0.21875 5.9375 0.640625q3.015625 0.40625 5.9375 0.953125q2.9375 0.53125 5.453125 1.140625l0 12.1875q-5.859375 -1.6875 -11.734375 -2.5625q-5.859375 -0.875 -11.34375 -0.875q-11.65625 0 -17.140625 3.890625q-5.484375 3.890625 -5.484375 10.4375q0 4.03125 2.25 6.9375q2.25 2.890625 5.90625 5.171875q3.65625 2.28125 8.328125 4.15625q4.6875 1.859375 9.5625 3.84375q4.875 1.984375 9.5625 4.34375q4.6875 2.359375 8.34375 5.59375q3.65625 3.234375 5.890625 7.578125q2.25 4.34375 2.25 10.28125zm85.76953 0q0 7.09375 -2.890625 12.421875q-2.890625 5.328125 -8.078125 8.875q-5.171875 3.53125 -12.453125 5.296875q-7.265625 1.75 -16.03125 1.75q-3.953125 0 -7.875 -0.3125q-3.921875 -0.296875 -7.546875 -0.765625q-3.625 -0.453125 -6.828125 -1.0625q-3.1875 -0.609375 -5.78125 -1.296875l0 -13.09375q5.71875 2.125 12.828125 3.34375q7.125 1.21875 16.203125 1.21875q6.546875 0 11.15625 -1.015625q4.609375 -1.03125 7.53125 -3.046875q2.9375 -2.03125 4.265625 -4.921875q1.34375 -2.890625 1.34375 -6.625q0 -4.03125 -2.25 -6.890625q-2.25 -2.859375 -5.90625 -5.109375q-3.65625 -2.25 -8.34375 -4.109375q-4.6875 -1.875 -9.5625 -3.84375q-4.875 -1.984375 -9.5625 -4.296875q-4.671875 -2.328125 -8.328125 -5.484375q-3.65625 -3.171875 -5.90625 -7.4375q-2.25 -4.265625 -2.25 -10.125q0 -5.109375 2.125 -10.0625q2.140625 -4.953125 6.625 -8.796875q4.5 -3.84375 11.546875 -6.203125q7.046875 -2.359375 16.796875 -2.359375q2.515625 0 5.453125 0.234375q2.9375 0.21875 5.9375 0.640625q3.015625 0.40625 5.9375 0.953125q2.9375 0.53125 5.453125 1.140625l0 12.1875q-5.859375 -1.6875 -11.734375 -2.5625q-5.859375 -0.875 -11.34375 -0.875q-11.65625 0 -17.140625 3.890625q-5.484375 3.890625 -5.484375 10.4375q0 4.03125 2.25 6.9375q2.25 2.890625 5.90625 5.171875q3.65625 2.28125 8.328125 4.15625q4.6875 1.859375 9.5625 3.84375q4.875 1.984375 9.5625 4.34375q4.6875 2.359375 8.34375 5.59375q3.65625 3.234375 5.890625 7.578125q2.25 4.34375 2.25 10.28125zm81.73828 26.96875l-56.59375 0l0 -99.5625l56.59375 0l0 11.4375l-43.03125 0l0 30.84375l41.359375 0l0 11.421875l-41.359375 0l0 34.28125l43.03125 0l0 11.578125zm95.89453 0l-13.25 0l-1.984375 -62.078125l-0.828125 -23.84375l-4.65625 13.859375l-14.6875 39.609375l-9.375 0l-14.015625 -38.078125l-4.640625 -15.390625l-0.3125 24.90625l-1.75 61.015625l-12.796875 0l4.875 -99.5625l16.078125 0l13.40625 37.484375l4.328125 12.640625l4.203125 -12.640625l14.078125 -37.484375l16.53125 0l4.796875 99.5625zm81.12891 -29.78125q0 7.15625 -2.78125 12.6875q-2.78125 5.515625 -7.921875 9.328125q-5.140625 3.796875 -12.421875 5.78125q-7.265625 1.984375 -16.171875 1.984375l-26.0625 0l0 -99.5625l28.5 0q33.28125 0 33.28125 24.234375q0 8.0625 -3.84375 13.859375q-3.84375 5.78125 -12.53125 8.609375q4.03125 0.75 7.640625 2.578125q3.625 1.828125 6.359375 4.734375q2.75 2.890625 4.34375 6.859375q1.609375 3.953125 1.609375 8.90625zm-17.671875 -43.71875q0 -3.046875 -0.921875 -5.75q-0.90625 -2.71875 -3.1875 -4.65625q-2.28125 -1.9375 -6.171875 -3.078125q-3.890625 -1.140625 -9.828125 -1.140625l-14.015625 0l0 31.140625l13.5625 0q4.640625 0 8.40625 -0.984375q3.78125 -0.984375 6.484375 -3.046875q2.703125 -2.0625 4.1875 -5.140625q1.484375 -3.078125 1.484375 -7.34375zm3.28125 44.171875q0 -3.8125 -1.609375 -6.859375q-1.59375 -3.046875 -4.640625 -5.140625q-3.046875 -2.09375 -7.4375 -3.234375q-4.375 -1.140625 -9.859375 -1.140625l-13.859375 0l0 34.28125l14.328125 0q11.640625 0 17.359375 -4.34375q5.71875 -4.34375 5.71875 -13.5625zm97.80078 29.328125l-57.28125 0l0 -99.5625l13.78125 0l0 87.984375l43.5 0l0 11.578125z" fill-rule="nonzero"/><path fill="#010000" fill-opacity="0.0" d="m780.9258 42.902573l85.76953 0l0 182.66016l-85.76953 0l0 -182.66016z" fill-rule="nonzero"/><path fill="#000000" d="m796.2383 82.27562l12.109375 0l0.375 14.09375q6.78125 -8.140625 13.375 -11.796875q6.59375 -3.65625 13.296875 -3.65625q11.875 0 18.0 7.6875q6.140625 7.6875 5.6875 22.859375l-13.40625 0q0.21875 -10.0625 -2.9375 -14.59375q-3.15625 -4.53125 -9.25 -4.53125q-2.671875 0 -5.375 0.953125q-2.703125 0.953125 -5.5625 3.046875q-2.859375 2.09375 -6.0625 5.375q-3.1875 3.265625 -6.84375 7.921875l0 49.125l-13.40625 0l0 -76.484375z" fill-rule="nonzero"/><path fill="#000000" fill-opacity="0.0" d="m866.6953 42.902573l85.76953 0l0 182.66016l-85.76953 0l0 -182.66016z" fill-rule="nonzero"/><path fill="#000000" d="m952.46094 189.99437l-85.765625 0l0 -10.96875l85.765625 0l0 10.96875z" fill-rule="nonzero"/><path fill="#000000" fill-opacity="0.0" d="m952.46484 42.902573l0 0l0 182.66016l0 0l0 -182.66016z" fill-rule="nonzero"/></g></svg>